<?xml version="1.0" standalone="no"?>
<!DOCTYPE svg PUBLIC "-//W3C//DTD SVG 20010904//EN"
 "http://www.w3.org/TR/2001/REC-SVG-20010904/DTD/svg10.dtd">
<svg version="1.0" xmlns="http://www.w3.org/2000/svg"
 width="177.000000pt" height="133.000000pt" viewBox="0 0 177.000000 133.000000"
 preserveAspectRatio="xMidYMid meet">
<g transform="translate(0.000000,133.000000) scale(0.100000,-0.100000)"
fill="#000000" stroke="none">
<path d="M252 1298 c12 -18 30 -46 41 -62 l19 -28 -40 -42 c-47 -49 -96 -131
-87 -146 4 -6 1 -9 -5 -8 -28 7 -77 -236 -65 -322 l6 -46 -60 -48 c-34 -27
-61 -51 -61 -52 0 -2 10 -3 23 -1 14 1 21 -3 19 -12 -2 -11 0 -12 11 -3 12 10
15 7 20 -17 3 -16 9 -42 13 -57 6 -26 5 -27 -9 -16 -13 11 -15 11 -13 0 1 -7
5 -19 9 -26 6 -8 1 -12 -14 -12 -16 0 -20 5 -16 20 3 11 1 18 -3 15 -5 -3 -13
18 -18 47 -8 46 -10 48 -11 18 -1 -39 25 -124 66 -212 l26 -56 70 -4 c91 -4
98 1 68 55 -31 56 -50 82 -56 75 -6 -6 24 -68 42 -86 7 -7 13 -18 13 -25 0 -6
-6 -2 -14 8 -11 16 -17 17 -29 7 -18 -15 -27 -5 -51 52 -9 22 -19 36 -22 33
-4 -4 1 -22 10 -41 19 -41 20 -56 3 -56 -20 0 -37 22 -37 47 0 13 -4 23 -10
23 -5 0 -10 7 -10 15 0 8 -4 15 -9 15 -5 0 -12 7 -15 16 -5 12 -2 15 9 10 9
-3 13 -2 10 4 -3 5 21 17 54 27 53 16 58 20 46 33 -8 9 -21 40 -30 70 -12 43
-14 47 -11 17 3 -21 11 -51 19 -67 13 -25 13 -29 0 -34 -21 -8 -43 -7 -41 2 0
4 -6 24 -16 45 -20 45 -34 141 -17 117 9 -13 11 -13 11 3 0 22 17 22 24 0 4
-14 4 -14 3 2 -1 11 2 25 6 32 4 6 9 53 12 105 3 51 7 113 9 138 6 50 42 140
56 140 5 0 7 6 4 14 -3 8 1 27 10 43 21 39 92 114 100 105 4 -3 4 1 1 10 -5
13 0 19 19 24 14 3 23 10 20 15 -3 6 -13 7 -22 4 -11 -3 -22 3 -30 16 -8 12
-9 18 -3 14 17 -10 13 6 -9 43 -12 19 -28 32 -40 32 -20 0 -20 0 2 -32z m22 6
c3 -8 2 -12 -4 -9 -6 3 -10 10 -10 16 0 14 7 11 14 -7z m-214 -750 c0 -8 -4
-12 -10 -9 -5 3 -10 10 -10 16 0 5 5 9 10 9 6 0 10 -7 10 -16z m47 -129 c0
-18 -23 -20 -33 -3 -4 6 -3 8 4 4 6 -3 13 -2 17 4 9 14 12 13 12 -5z m113
-175 c0 -5 -2 -10 -4 -10 -3 0 -8 5 -11 10 -3 6 -1 10 4 10 6 0 11 -4 11 -10z"/>
<path d="M441 1319 c9 -5 -1 -20 -31 -49 -23 -22 -40 -43 -37 -47 4 -3 22 10
41 30 22 23 38 32 45 26 8 -6 8 -5 1 3 -5 7 -10 16 -10 21 0 4 5 5 10 2 6 -3
10 -1 10 5 0 6 5 8 10 5 6 -3 10 -2 10 3 0 5 -14 9 -30 9 -18 0 -26 -3 -19 -8z"/>
<path d="M1283 1323 c4 -3 2 -12 -5 -20 -8 -10 -8 -17 -1 -24 8 -8 13 -7 18 2
5 8 4 10 -3 5 -7 -4 -12 -3 -12 3 0 5 5 13 10 16 14 8 13 25 -2 25 -6 0 -8 -3
-5 -7z"/>
<path d="M1310 1320 c0 -5 4 -10 8 -10 5 0 17 -7 28 -16 10 -8 13 -12 5 -8 -9
4 -12 3 -7 -4 4 -6 14 -9 24 -6 14 5 13 2 -3 -11 -20 -17 -20 -17 0 -11 29 8
73 -41 78 -88 2 -20 8 -40 12 -44 4 -4 4 3 1 16 -10 30 8 28 28 -3 19 -29 20
-39 4 -29 -7 4 -8 3 -4 -5 4 -6 11 -9 16 -6 5 3 11 -8 15 -25 4 -17 11 -28 16
-24 5 3 9 -5 9 -18 0 -18 -2 -20 -10 -8 -6 9 -10 10 -10 3 0 -6 4 -14 10 -18
5 -3 6 -13 3 -22 -4 -10 -2 -14 4 -10 6 4 14 1 17 -5 3 -7 4 -2 1 12 -4 22 -3
22 10 -5 8 -16 15 -43 16 -60 0 -16 5 -41 9 -55 6 -18 8 -7 7 36 -1 34 -5 60
-9 57 -5 -2 -8 1 -8 6 0 14 40 17 95 6 11 -2 26 -4 33 -4 7 -1 11 -5 7 -11 -3
-5 -12 -7 -19 -4 -8 3 -17 1 -20 -5 -4 -6 5 -8 23 -6 l29 4 16 -92 c9 -51 18
-103 20 -117 3 -14 3 13 0 58 -2 46 -9 106 -15 133 -10 45 -13 49 -47 54 -20
4 -50 11 -66 16 -37 12 -49 11 -41 -1 3 -5 0 -7 -8 -5 -7 3 -19 22 -26 43 -35
99 -150 255 -213 288 -32 17 -38 17 -38 4z"/>
<path d="M405 1300 c-3 -5 -1 -10 4 -10 6 0 11 5 11 10 0 6 -2 10 -4 10 -3 0
-8 -4 -11 -10z"/>
<path d="M1240 1260 c-9 -6 -10 -10 -3 -10 6 0 15 5 18 10 8 12 4 12 -15 0z"/>
<path d="M1315 1260 c4 -6 11 -8 16 -5 14 9 11 15 -7 15 -8 0 -12 -5 -9 -10z"/>
<path d="M819 1233 c-13 -16 -12 -17 4 -4 9 7 17 15 17 17 0 8 -8 3 -21 -13z"/>
<path d="M860 1240 c8 -5 20 -10 25 -10 6 0 3 5 -5 10 -8 5 -19 10 -25 10 -5
0 -3 -5 5 -10z"/>
<path d="M1152 1240 c14 -4 32 -11 39 -15 8 -6 10 -4 4 5 -6 10 -4 12 9 7 10
-4 25 -7 34 -7 15 0 15 -2 2 -10 -8 -5 -10 -10 -4 -10 5 0 18 6 28 13 16 12
16 13 -1 14 -10 0 -45 3 -78 6 -39 4 -51 3 -33 -3z"/>
<path d="M1505 1241 c-3 -5 -2 -12 3 -15 5 -3 9 1 9 9 0 17 -3 19 -12 6z"/>
<path d="M670 1236 c0 -2 7 -7 16 -10 8 -3 12 -2 9 4 -6 10 -25 14 -25 6z"/>
<path d="M718 1233 c6 -2 18 -2 25 0 6 3 1 5 -13 5 -14 0 -19 -2 -12 -5z"/>
<path d="M1380 1231 c0 -6 4 -13 10 -16 6 -3 7 1 4 9 -7 18 -14 21 -14 7z"/>
<path d="M935 1224 c-22 -3 -77 -11 -123 -20 -45 -8 -88 -12 -94 -8 -6 4 -8 3
-5 -3 7 -11 -87 -38 -103 -28 -5 3 -18 1 -27 -5 -15 -9 -14 -10 7 -5 l25 5
-23 -12 c-19 -9 -25 -9 -34 3 -8 12 -9 11 -5 -2 6 -19 -51 -43 -78 -32 -18 6
-18 7 1 15 17 7 17 8 1 5 -10 -1 -17 -6 -17 -11 1 -5 -4 -13 -12 -18 -9 -6 -6
-7 10 -3 39 11 24 -1 -43 -34 -35 -18 -80 -47 -100 -66 -33 -33 -46 -53 -25
-40 6 3 16 3 23 -2 20 -13 36 -12 48 3 6 8 8 14 3 14 -4 0 3 12 17 27 l24 27
-32 -23 c-18 -12 -35 -26 -38 -31 -7 -12 -25 -13 -25 -2 0 9 112 84 167 111
88 44 287 98 423 116 94 13 235 7 302 -11 63 -18 143 -64 151 -87 2 -6 4 2 3
20 -1 17 -5 35 -9 40 -5 4 -5 0 -2 -10 6 -13 -5 -10 -49 13 -31 17 -63 30 -71
30 -9 0 -14 4 -11 8 5 9 5 9 -134 15 -58 3 -123 3 -145 1z m-575 -248 c0 -3
-4 -8 -10 -11 -5 -3 -10 -1 -10 4 0 6 5 11 10 11 6 0 10 -2 10 -4z"/>
<path d="M654 1206 c-15 -11 -13 -12 14 -8 36 5 38 7 18 15 -8 3 -22 0 -32 -7z"/>
<path d="M718 1213 c7 -3 16 -2 19 1 4 3 -2 6 -13 5 -11 0 -14 -3 -6 -6z"/>
<path d="M390 1200 c0 -5 5 -10 11 -10 5 0 7 5 4 10 -3 6 -8 10 -11 10 -2 0
-4 -4 -4 -10z"/>
<path d="M1000 1190 c-34 -7 -34 -7 -5 -8 17 0 41 4 55 8 33 11 0 11 -50 0z"/>
<path d="M1400 1191 c0 -5 7 -12 16 -15 14 -5 15 -4 4 9 -14 17 -20 19 -20 6z"/>
<path d="M850 1180 c-12 -7 -10 -9 7 -7 12 0 19 5 17 9 -6 10 -6 10 -24 -2z"/>
<path d="M1190 1171 c0 -6 11 -13 25 -17 23 -6 30 -15 26 -36 -2 -17 10 -7 19
15 7 18 9 18 9 4 1 -10 6 -15 11 -12 17 10 -8 35 -27 28 -11 -4 -14 -2 -9 5 5
8 2 10 -9 6 -8 -4 -22 -1 -30 6 -10 8 -15 9 -15 1z"/>
<path d="M405 1150 c-5 -8 52 -6 60 2 3 2 -9 5 -25 5 -17 0 -33 -3 -35 -7z"/>
<path d="M1010 1150 c8 -5 20 -10 25 -10 6 0 3 5 -5 10 -8 5 -19 10 -25 10 -5
0 -3 -5 5 -10z"/>
<path d="M272 1116 c-38 -41 -42 -55 -6 -23 23 19 50 57 42 57 -2 0 -18 -15
-36 -34z"/>
<path d="M1054 1126 c-9 -24 -1 -29 64 -36 31 -4 77 -17 101 -29 52 -24 60
-22 35 12 -28 37 -70 57 -135 64 -49 5 -60 3 -65 -11z"/>
<path d="M575 1110 c-4 -7 3 -8 21 -4 21 5 25 4 19 -6 -5 -9 -4 -11 4 -6 6 4
9 12 6 17 -8 12 -42 12 -50 -1z"/>
<path d="M668 1113 c7 -3 16 -2 19 1 4 3 -2 6 -13 5 -11 0 -14 -3 -6 -6z"/>
<path d="M951 1104 c0 -11 3 -14 6 -6 3 7 2 16 -1 19 -3 4 -6 -2 -5 -13z"/>
<path d="M530 1100 c-8 -5 -10 -10 -5 -10 6 0 17 5 25 10 8 5 11 10 5 10 -5 0
-17 -5 -25 -10z"/>
<path d="M1073 1053 c9 -2 23 -2 30 0 6 3 -1 5 -18 5 -16 0 -22 -2 -12 -5z"/>
<path d="M420 1040 c-8 -5 -10 -10 -5 -10 6 0 17 5 25 10 8 5 11 10 5 10 -5 0
-17 -5 -25 -10z"/>
<path d="M1116 1023 c-6 -14 -5 -15 5 -6 7 7 10 15 7 18 -3 3 -9 -2 -12 -12z"/>
<path d="M449 1021 c7 -5 10 -14 6 -21 -6 -9 -3 -9 14 -1 11 7 21 14 21 17 0
3 -4 3 -9 -1 -5 -3 -12 -1 -16 5 -3 5 -12 10 -18 10 -8 0 -7 -3 2 -9z"/>
<path d="M1175 1020 c-3 -5 -2 -10 4 -10 5 0 13 5 16 10 3 6 2 10 -4 10 -5 0
-13 -4 -16 -10z"/>
<path d="M399 1003 c-8 -9 -9 -14 -4 -11 6 4 17 3 24 -2 10 -6 6 -12 -18 -25
-55 -28 -116 -145 -76 -145 14 0 20 20 15 45 -1 5 2 7 6 3 4 -4 23 5 43 20 20
15 49 36 65 46 l30 19 -25 20 c-13 10 -24 24 -24 30 0 18 -21 18 -36 0z m51
-38 c0 -2 -18 -14 -39 -25 -22 -11 -45 -28 -50 -37 -6 -10 -10 -13 -11 -8 0
17 14 32 50 54 34 21 50 26 50 16z"/>
<path d="M517 999 c4 -13 8 -18 11 -10 2 7 -1 18 -6 23 -8 8 -9 4 -5 -13z"/>
<path d="M230 995 c-7 -9 -8 -15 -2 -15 5 0 12 7 16 15 3 8 4 15 2 15 -2 0 -9
-7 -16 -15z"/>
<path d="M265 990 c3 -5 8 -10 11 -10 2 0 4 5 4 10 0 6 -5 10 -11 10 -5 0 -7
-4 -4 -10z"/>
<path d="M196 965 c-3 -9 -6 -22 -5 -28 0 -7 5 -1 10 12 5 13 8 26 5 28 -2 2
-6 -3 -10 -12z"/>
<path d="M254 966 c4 -10 1 -26 -6 -35 -11 -14 -10 -14 6 0 15 14 16 20 6 35
-11 18 -11 18 -6 0z"/>
<path d="M1553 929 c-2 -23 3 -25 10 -4 4 8 3 16 -1 19 -4 3 -9 -4 -9 -15z"/>
<path d="M274 928 c-4 -7 -3 -8 4 -4 7 4 12 1 12 -8 0 -8 -4 -18 -10 -21 -5
-3 -9 -16 -9 -28 1 -20 2 -20 6 -2 3 10 12 29 19 41 13 19 13 22 0 27 -9 4
-18 1 -22 -5z"/>
<path d="M1496 927 c3 -10 9 -15 12 -12 3 3 0 11 -7 18 -10 9 -11 8 -5 -6z"/>
<path d="M1651 915 c-1 -11 3 -35 9 -53 7 -28 7 -33 -5 -28 -8 3 -15 1 -15 -4
0 -12 27 -13 33 -2 2 4 -2 30 -9 57 -7 28 -13 41 -13 30z"/>
<path d="M1117 911 c-26 -9 -96 -61 -81 -61 4 0 -1 -9 -11 -20 -22 -25 -25
-132 -5 -171 50 -96 166 -132 264 -82 38 20 49 31 71 72 39 77 9 175 -72 234
-45 32 -115 44 -166 28z m73 -33 c0 -18 2 -20 9 -8 6 8 7 18 4 23 -8 14 39 -3
64 -23 12 -10 21 -19 18 -21 -2 -3 5 -15 16 -29 15 -19 18 -20 12 -5 -6 17 -5
18 9 5 11 -11 15 -34 14 -90 -1 -74 -10 -105 -26 -95 -4 3 -7 -3 -6 -12 0 -9
-6 -18 -14 -20 -13 -4 -13 -3 0 6 13 9 13 11 -1 11 -9 0 -20 -7 -23 -16 -3 -9
-12 -14 -18 -12 -7 3 -19 -1 -26 -9 -20 -19 -37 -16 -21 4 13 16 11 16 -14 0
-16 -10 -31 -16 -35 -13 -3 3 0 6 6 6 7 0 12 5 12 10 0 7 -6 7 -19 0 -11 -5
-26 -10 -33 -9 -10 0 -10 2 0 6 6 2 12 10 12 15 0 6 -3 9 -6 5 -12 -11 -62 15
-72 38 -15 33 1 32 18 0 17 -32 24 -25 9 9 -7 14 -19 26 -28 26 -13 0 -14 2
-2 9 10 6 20 3 32 -12 11 -13 18 -17 19 -9 0 7 4 11 9 8 4 -3 19 3 31 14 17
14 21 26 16 45 -4 14 -2 25 4 25 5 0 10 -5 10 -12 0 -6 3 -8 6 -5 4 4 1 13 -6
22 -7 8 -9 15 -4 15 5 1 -4 8 -19 16 -30 16 -53 10 -27 -6 8 -6 10 -10 4 -10
-9 0 -9 -11 -3 -37 12 -51 11 -59 -3 -45 -15 15 -32 16 -23 2 3 -5 2 -10 -3
-10 -15 0 -22 12 -14 24 4 6 7 16 7 21 1 6 6 9 13 8 7 -2 12 1 12 7 0 6 -6 10
-13 10 -8 0 -25 12 -38 28 l-25 27 23 25 24 25 -5 -28 c-4 -25 -2 -28 17 -25
15 2 21 9 19 21 -2 9 3 17 10 17 10 0 10 2 0 9 -29 18 -17 26 61 40 4 0 7 -9
7 -21z m-80 -22 c0 -3 -4 -8 -10 -11 -5 -3 -10 -1 -10 4 0 6 5 11 10 11 6 0
10 -2 10 -4z m-41 -140 c-14 -15 -22 0 -13 26 7 22 7 22 14 3 4 -11 4 -24 -1
-29z"/>
<path d="M1235 870 c3 -5 -2 -10 -11 -10 -10 0 -15 -3 -11 -6 9 -9 48 6 42 17
-4 5 -11 9 -16 9 -6 0 -7 -4 -4 -10z"/>
<path d="M1060 799 c6 -10 20 -19 30 -19 28 0 25 6 -10 23 -28 15 -29 15 -20
-4z"/>
<path d="M1181 794 c0 -11 3 -14 6 -6 3 7 2 16 -1 19 -3 4 -6 -2 -5 -13z"/>
<path d="M1280 801 c0 -5 5 -13 10 -16 6 -3 10 -2 10 4 0 5 -4 13 -10 16 -5 3
-10 2 -10 -4z"/>
<path d="M1170 706 c0 -2 7 -7 16 -10 8 -3 12 -2 9 4 -6 10 -25 14 -25 6z"/>
<path d="M1685 880 c2 -25 4 -51 4 -57 1 -7 5 -13 10 -13 5 0 7 10 3 22 -4 16
-2 19 9 13 9 -6 8 -2 -3 11 -9 10 -18 30 -21 44 -3 14 -4 5 -2 -20z"/>
<path d="M1300 900 c0 -5 5 -10 11 -10 5 0 7 5 4 10 -3 6 -8 10 -11 10 -2 0
-4 -4 -4 -10z"/>
<path d="M425 890 c-3 -5 -2 -10 4 -10 5 0 13 5 16 10 3 6 2 10 -4 10 -5 0
-13 -4 -16 -10z"/>
<path d="M1492 865 c0 -16 2 -22 5 -12 2 9 2 23 0 30 -3 6 -5 -1 -5 -18z"/>
<path d="M1512 870 c0 -14 2 -19 5 -12 2 6 2 18 0 25 -3 6 -5 1 -5 -13z"/>
<path d="M442 867 c-8 -10 -6 -13 7 -13 11 0 17 6 14 13 -3 7 -6 13 -8 13 -1
0 -7 -6 -13 -13z"/>
<path d="M386 854 c-6 -15 -4 -15 11 -3 10 7 20 15 22 16 2 2 -3 3 -11 3 -9 0
-19 -7 -22 -16z"/>
<path d="M1626 853 c-6 -14 -5 -15 5 -6 7 7 10 15 7 18 -3 3 -9 -2 -12 -12z"/>
<path d="M355 820 c-8 -13 3 -30 18 -30 7 0 6 4 -3 10 -13 9 -13 11 0 20 9 6
10 10 3 10 -6 0 -15 -4 -18 -10z"/>
<path d="M1416 815 c-3 -9 -6 -22 -5 -28 0 -7 5 -1 10 12 5 13 8 26 5 28 -2 2
-6 -3 -10 -12z"/>
<path d="M1590 820 c13 -9 13 -11 0 -20 -11 -7 -11 -10 -2 -10 7 0 10 -5 6
-11 -3 -6 -18 -9 -33 -7 -19 3 -27 -1 -28 -12 -1 -9 7 -15 22 -15 13 0 21 3
18 8 -2 4 5 7 16 7 23 0 28 -19 10 -37 -8 -8 -8 -13 0 -17 6 -4 11 -1 12 6 1
7 5 -3 9 -22 13 -55 3 -89 -26 -85 -13 1 -21 -1 -19 -6 3 -4 1 -10 -5 -14 -5
-3 -10 -16 -10 -28 0 -13 3 -17 8 -11 4 7 15 8 27 3 16 -6 16 -8 3 -8 -12 -1
-15 -9 -14 -33 2 -18 -1 -42 -5 -53 -7 -17 -8 -16 -8 9 -1 28 -1 29 -21 11
-11 -10 -18 -21 -15 -24 4 -3 10 1 15 9 8 12 10 9 10 -11 0 -15 -7 -32 -15
-39 -9 -7 -14 -18 -12 -25 3 -6 -2 -20 -10 -30 -13 -16 -14 -17 -10 -3 3 10 3
19 -1 22 -4 3 -9 -4 -9 -15 -2 -26 -42 -81 -56 -76 -15 5 -21 27 -8 27 6 0 11
-5 11 -11 0 -5 5 -7 10 -4 8 5 8 11 0 20 -7 9 -6 16 7 26 15 12 16 12 8 -1 -4
-8 -4 -12 0 -7 5 4 10 18 12 30 2 19 -2 16 -31 -15 -47 -53 -55 -47 -9 7 20
25 39 41 42 37 10 -13 33 -13 28 0 -2 7 -10 12 -16 10 -6 -1 -11 3 -11 9 0 5
-4 8 -9 4 -5 -3 -12 -1 -15 4 -3 5 1 11 8 14 8 3 17 1 19 -6 3 -7 13 7 24 30
11 24 22 40 26 37 3 -3 3 5 0 17 -6 23 -7 23 -19 -6 -7 -17 -13 -36 -14 -43 0
-7 -4 -11 -9 -7 -5 3 -12 1 -16 -5 -9 -15 -28 -12 -19 3 4 6 -2 3 -14 -7 -14
-12 -20 -26 -16 -38 3 -11 0 -18 -7 -18 -7 0 -9 -3 -6 -7 4 -3 16 2 27 12 28
25 25 3 -3 -23 -19 -18 -26 -19 -37 -9 -12 10 -12 9 -2 -4 10 -13 8 -20 -11
-36 -12 -11 -28 -23 -34 -27 -21 -11 -15 13 7 31 24 21 26 32 3 29 -9 -2 -18
-11 -19 -21 -3 -21 -34 -55 -34 -38 0 7 5 15 10 18 6 3 10 12 10 18 0 7 -8 0
-17 -15 -14 -23 -62 -51 -75 -45 -1 1 -2 0 -1 -2 2 -2 -7 -11 -18 -19 -18 -12
-23 -13 -31 -1 -8 11 -9 10 -4 -3 4 -14 -5 -21 -49 -34 -30 -8 -60 -12 -66 -8
-7 4 -9 3 -5 -4 4 -6 -12 -15 -41 -21 -78 -18 -87 -20 -118 -28 -16 -4 -33 -6
-37 -5 -5 1 -8 -3 -8 -8 0 -6 6 -10 13 -10 18 0 155 38 200 55 20 8 41 14 45
13 15 -4 72 14 72 23 0 5 11 11 25 15 14 3 25 10 25 16 0 5 4 7 8 4 5 -3 20 2
33 12 26 18 70 29 54 13 -21 -21 -174 -91 -250 -114 -44 -14 -96 -30 -115 -36
l-35 -11 37 6 c21 3 47 0 57 -6 13 -7 22 -7 26 0 4 6 10 8 15 5 5 -3 11 -1 15
5 3 5 -1 10 -9 10 -8 0 -17 -4 -21 -10 -3 -5 -13 -6 -21 -3 -9 3 21 18 72 35
94 30 224 96 261 131 13 11 25 18 29 15 8 -9 -54 -53 -136 -96 -88 -46 -107
-78 -41 -69 39 5 56 -5 29 -16 -7 -3 -1 -5 14 -4 15 1 25 3 23 6 -5 5 26 30
38 31 5 0 5 -4 2 -10 -3 -6 1 -7 9 -4 9 3 13 11 9 17 -3 6 -1 7 6 3 6 -4 8
-12 5 -18 -5 -7 2 -9 22 -4 27 6 28 5 7 -7 -16 -9 -20 -16 -13 -27 8 -13 10
-12 10 3 0 9 5 17 10 17 6 0 13 0 18 1 4 0 10 -10 14 -23 7 -20 7 -19 4 5 -3
23 0 27 15 22 11 -4 19 -2 19 3 0 6 -11 9 -25 7 -34 -3 -32 11 3 18 15 3 36 8
47 12 17 5 18 4 4 -6 -13 -10 -14 -17 -5 -41 14 -37 22 -35 20 6 -2 46 9 64
30 47 13 -11 16 -11 16 1 0 7 15 21 33 29 l33 15 3 -42 c1 -34 10 -51 41 -86
22 -24 40 -47 40 -51 0 -5 5 -5 12 -1 6 4 8 3 5 -3 -4 -6 -19 -8 -34 -6 -16 2
-42 4 -60 3 -20 0 -36 6 -43 17 -9 14 -10 14 -7 2 4 -13 -2 -16 -33 -15 -21 0
-34 4 -28 7 7 4 7 9 0 13 -5 3 -13 -1 -16 -9 -4 -12 -10 -14 -25 -5 -13 7 -22
7 -26 0 -11 -17 -37 -11 -42 10 -3 11 -9 20 -13 20 -14 0 -19 -28 -7 -34 7 -3
6 -5 -3 -5 -9 -1 -21 4 -28 11 -9 9 -12 9 -12 0 0 -7 -6 -12 -14 -12 -9 0 -12
9 -10 28 2 17 1 19 -3 7 -7 -27 -24 -36 -40 -23 -9 7 -13 7 -13 -1 0 -8 -15
-11 -42 -9 -36 2 -44 7 -46 26 -4 23 -18 28 -42 12 -13 -8 -12 -11 5 -24 18
-13 17 -14 -18 -14 -20 0 -39 4 -42 8 -3 4 3 7 12 6 9 0 18 5 20 12 4 9 -1 10
-21 2 -15 -5 -37 -12 -49 -14 -12 -2 -40 -7 -61 -11 -26 -5 -37 -4 -33 3 4 5
0 12 -8 16 -8 3 -14 0 -12 -7 1 -8 -21 -12 -78 -14 -71 -1 -77 0 -56 12 14 7
31 11 38 8 7 -3 30 -2 50 2 59 11 18 24 -47 15 -30 -4 -58 -6 -62 -3 -5 2 -8
-2 -8 -11 0 -11 -17 -15 -76 -18 -42 -2 -78 -1 -80 1 -2 2 -21 6 -42 8 -20 2
-41 9 -47 14 -7 7 -4 8 9 3 14 -5 17 -4 12 5 -5 8 -18 10 -33 6 -19 -4 -32 0
-50 17 -14 13 -26 22 -29 21 -10 -7 -25 -2 -20 6 3 5 -13 16 -36 25 -30 13
-38 20 -30 28 9 9 18 6 35 -10 37 -35 139 -71 231 -81 86 -10 237 0 301 19 23
8 18 8 -20 3 -181 -23 -315 -18 -407 17 -50 18 -114 57 -78 47 8 -2 23 0 32 4
11 6 19 5 24 -3 4 -6 3 -8 -4 -4 -6 3 -13 2 -16 -3 -3 -5 3 -11 13 -14 13 -3
18 0 16 12 -1 9 2 22 8 29 8 10 5 11 -17 3 -14 -6 -26 -7 -26 -3 0 4 -4 1 -9
-7 -7 -11 -17 -6 -45 25 -40 44 -49 43 -11 -2 33 -38 23 -43 -18 -8 -43 37
-68 79 -63 107 1 12 1 16 -1 9 -7 -20 -19 -14 -34 21 -14 32 -31 39 -37 15 -3
-10 -2 -10 6 1 13 19 25 -3 17 -32 -4 -13 -3 -17 2 -10 6 8 14 3 25 -17 10
-17 13 -32 7 -35 -20 -13 -6 -40 51 -96 35 -34 86 -70 123 -88 128 -61 128
-61 733 -61 521 0 552 1 567 18 10 10 17 26 17 36 0 16 -1 16 -16 2 -20 -20
-19 -20 -48 9 -42 42 -56 68 -56 107 0 32 4 39 25 44 14 3 34 4 45 1 13 -3 18
-1 13 6 -4 7 0 8 11 4 10 -4 15 -3 11 3 -3 6 -1 10 4 10 6 0 11 7 11 15 0 12
-7 11 -36 -6 -20 -11 -43 -18 -51 -15 -8 3 -49 -6 -91 -20 -42 -14 -86 -26
-97 -26 -11 0 -33 -6 -50 -13 -52 -22 -73 -26 -80 -16 -4 7 -21 1 -45 -14 -22
-14 -40 -24 -41 -23 -1 2 -2 15 -3 30 -2 20 3 30 18 35 12 4 25 6 29 5 5 -1 6
2 2 7 -8 14 40 25 59 14 13 -7 13 -10 -6 -22 -19 -12 -20 -11 -14 5 6 17 6 17
-14 -1 -11 -10 -20 -19 -20 -20 0 -1 13 -1 29 0 52 3 167 117 216 214 27 53
55 141 55 172 0 15 5 31 10 34 6 4 10 -5 10 -19 0 -31 17 -33 51 -8 13 9 33
22 44 28 24 14 26 41 5 71 -19 28 -29 29 -27 4 1 -12 6 -17 17 -13 8 3 12 2 8
-3 -4 -4 -2 -15 5 -23 10 -13 9 -15 -11 -10 -12 4 -20 2 -17 -2 3 -5 1 -11 -4
-14 -5 -3 -16 29 -25 71 -14 69 -15 72 -11 23 3 -30 8 -66 11 -80 4 -21 2 -26
-14 -27 -27 -2 -43 33 -45 99 -1 20 -5 34 -9 32 -5 -3 -8 1 -8 9 0 18 13 23
74 32 25 4 46 12 46 17 0 5 -3 7 -7 5 -5 -3 -26 -8 -48 -11 -22 -4 -48 -9 -57
-12 -14 -4 -18 0 -18 20 0 18 -5 26 -17 26 -15 0 -16 -2 -3 -10z m12 -237 c-6
-3 -10 -9 -6 -14 3 -5 1 -9 -5 -9 -5 0 -12 4 -16 9 -6 11 27 33 35 24 3 -3 -1
-8 -8 -10z m1 -68 c-3 -9 -8 -14 -10 -11 -3 3 -2 9 2 15 9 16 15 13 8 -4z
m-150 -90 c-3 -9 -8 -14 -10 -11 -3 3 -2 9 2 15 9 16 15 13 8 -4z m-13 -155
c0 -11 -50 -31 -62 -24 -5 4 0 16 13 30 17 18 25 21 36 13 7 -6 13 -15 13 -19z
m-1119 -47 c35 -37 23 -37 -18 0 -20 18 -30 37 -20 37 2 0 19 -16 38 -37z
m947 -45 c-4 -19 -20 -28 -48 -28 -25 0 -25 0 5 20 35 23 46 25 43 8z"/>
<path d="M1400 268 c-12 -22 -12 -22 6 -6 10 10 15 20 12 24 -4 3 -12 -5 -18
-18z"/>
<path d="M282 808 c-7 -9 -6 -17 4 -26 8 -7 14 -9 15 -5 0 4 4 -1 9 -12 8 -18
9 -18 9 -2 1 10 -6 20 -15 24 -8 3 -13 12 -10 19 7 17 2 18 -12 2z"/>
<path d="M325 790 c3 -5 8 -10 11 -10 2 0 4 5 4 10 0 6 -5 10 -11 10 -5 0 -7
-4 -4 -10z"/>
<path d="M1392 765 c0 -16 2 -22 5 -12 2 9 2 23 0 30 -3 6 -5 -1 -5 -18z"/>
<path d="M690 770 c-12 -7 -10 -9 7 -7 12 0 19 5 17 9 -6 10 -6 10 -24 -2z"/>
<path d="M455 746 c-66 -29 -115 -104 -115 -176 0 -80 61 -164 128 -176 79
-15 145 11 189 75 95 140 -53 343 -202 277z m108 -23 c-7 -3 -13 -9 -13 -14 0
-6 8 -5 20 1 16 9 18 8 14 -5 -4 -10 -2 -13 8 -10 21 8 41 -20 43 -60 1 -37
15 -61 16 -29 0 15 2 14 10 -6 6 -14 6 -26 1 -28 -5 -1 -7 -14 -4 -29 4 -19 2
-24 -8 -18 -9 6 -9 3 0 -15 11 -20 10 -22 -5 -16 -12 4 -16 2 -12 -8 14 -36
-117 -91 -150 -64 -7 6 -20 8 -28 4 -8 -3 -21 2 -27 10 -7 9 -20 23 -29 33
-23 25 -32 64 -13 57 7 -3 18 3 24 15 6 11 15 17 20 14 11 -7 40 5 40 17 0 6
-6 5 -15 -2 -13 -11 -15 -8 -15 14 0 25 19 38 21 14 0 -10 2 -10 6 0 4 10 8
10 19 1 10 -8 14 -8 14 0 0 6 -4 12 -10 12 -5 1 -14 2 -20 3 -5 0 -9 5 -7 11
3 12 40 7 49 -8 3 -5 4 -16 1 -23 -2 -7 0 -22 7 -33 10 -19 9 -20 -15 -11 -17
7 -25 6 -25 -1 0 -6 -7 -9 -15 -5 -8 3 -15 2 -15 -3 0 -16 13 -20 37 -10 16 6
22 6 18 -1 -3 -6 -2 -10 3 -10 16 0 32 26 31 51 -1 13 1 36 5 50 6 22 4 27
-16 32 -29 6 -59 4 -78 -8 -13 -8 -13 -6 -1 8 7 9 19 17 27 17 18 0 27 17 13
26 -8 4 -9 3 -5 -4 4 -7 1 -12 -9 -12 -9 0 -14 4 -11 9 3 5 0 8 -7 7 -6 0 -13
4 -14 9 -1 6 6 10 17 9 10 0 17 3 14 7 -2 4 4 9 13 11 24 4 91 -4 76 -9z
m-132 -37 c5 3 9 -2 9 -10 0 -8 -5 -18 -12 -22 -7 -4 -8 -3 -4 5 4 6 4 11 -1
10 -26 -4 -34 1 -21 15 7 8 15 10 16 5 2 -5 8 -7 13 -3z m-27 -53 c-4 -16 -10
-35 -14 -42 -5 -8 -4 -25 1 -38 8 -21 7 -21 -16 -11 -18 8 -22 14 -15 24 8 8
7 13 0 16 -8 2 -6 15 6 41 21 44 48 51 38 10z"/>
<path d="M504 701 c3 -5 15 -11 26 -14 17 -4 19 -3 9 9 -12 15 -44 20 -35 5z"/>
<path d="M420 540 c0 -5 5 -10 11 -10 5 0 7 5 4 10 -3 6 -8 10 -11 10 -2 0 -4
-4 -4 -10z"/>
<path d="M660 751 c0 -5 5 -13 10 -16 6 -3 10 -2 10 4 0 5 -4 13 -10 16 -5 3
-10 2 -10 -4z"/>
<path d="M1490 750 c8 -5 20 -10 25 -10 6 0 3 5 -5 10 -8 5 -19 10 -25 10 -5
0 -3 -5 5 -10z"/>
<path d="M355 739 c-11 -16 -1 -19 13 -3 7 8 8 14 3 14 -5 0 -13 -5 -16 -11z"/>
<path d="M952 730 c0 -14 2 -19 5 -12 2 6 2 18 0 25 -3 6 -5 1 -5 -13z"/>
<path d="M140 730 c0 -5 5 -10 10 -10 6 0 10 5 10 10 0 6 -4 10 -10 10 -5 0
-10 -4 -10 -10z"/>
<path d="M331 718 c-1 -10 -5 -18 -9 -18 -4 0 -8 -10 -9 -22 -2 -21 0 -20 13
5 9 16 13 34 10 40 -2 7 -5 4 -5 -5z"/>
<path d="M690 718 c0 -9 -4 -18 -8 -20 -5 -1 -1 -16 10 -33 l18 -30 -5 45 c-6
44 -15 68 -15 38z"/>
<path d="M1399 728 c-5 -22 -9 -91 -4 -87 8 8 17 89 10 89 -3 0 -5 -1 -6 -2z"/>
<path d="M1543 637 c0 -54 1 -96 2 -95 9 10 13 101 7 143 -7 43 -8 37 -9 -48z"/>
<path d="M1513 705 c0 -8 4 -15 9 -15 4 0 8 4 8 9 0 6 -4 12 -8 15 -5 3 -9 -1
-9 -9z"/>
<path d="M1560 709 c0 -5 5 -7 10 -4 6 3 10 8 10 11 0 2 -4 4 -10 4 -5 0 -10
-5 -10 -11z"/>
<path d="M140 700 c0 -5 5 -10 10 -10 6 0 10 5 10 10 0 6 -4 10 -10 10 -5 0
-10 -4 -10 -10z"/>
<path d="M1656 693 c-6 -14 -5 -15 5 -6 7 7 10 15 7 18 -3 3 -9 -2 -12 -12z"/>
<path d="M277 689 c7 -7 15 -10 18 -7 3 3 -2 9 -12 12 -14 6 -15 5 -6 -5z"/>
<path d="M1575 692 c-6 -4 -8 -20 -5 -37 l6 -30 5 38 c3 20 5 37 4 37 0 0 -5
-4 -10 -8z"/>
<path d="M183 650 c0 -25 2 -35 4 -22 2 12 2 32 0 45 -2 12 -4 2 -4 -23z"/>
<path d="M1590 671 c0 -5 5 -13 10 -16 6 -3 10 -2 10 4 0 5 -4 13 -10 16 -5 3
-10 2 -10 -4z"/>
<path d="M966 645 c-9 -26 -7 -32 5 -12 6 10 9 21 6 23 -2 3 -7 -2 -11 -11z"/>
<path d="M138 632 c-3 -9 -2 -26 2 -37 6 -15 8 -10 8 18 0 40 -3 47 -10 19z"/>
<path d="M162 630 c0 -14 2 -19 5 -12 2 6 2 18 0 25 -3 6 -5 1 -5 -13z"/>
<path d="M1670 639 c0 -5 5 -7 10 -4 6 3 10 8 10 11 0 2 -4 4 -10 4 -5 0 -10
-5 -10 -11z"/>
<path d="M1342 590 c-35 -53 -37 -60 -21 -60 5 0 7 5 3 12 -5 7 -2 9 8 5 12
-4 15 0 11 16 -4 18 -3 19 7 7 9 -12 10 -11 5 8 -3 12 -2 22 3 22 6 0 13 7 16
16 13 33 0 22 -32 -26z"/>
<path d="M1522 615 c0 -16 2 -22 5 -12 2 9 2 23 0 30 -3 6 -5 -1 -5 -18z"/>
<path d="M707 599 c6 -22 23 -26 23 -5 0 8 -6 16 -14 19 -10 4 -12 0 -9 -14z"/>
<path d="M1508 553 c-2 -16 -8 -27 -15 -26 -7 2 -10 -4 -6 -13 5 -13 8 -13 19
-2 15 16 26 68 14 68 -5 0 -10 -12 -12 -27z"/>
<path d="M1732 551 c-11 -7 -11 -9 0 -14 9 -3 15 1 15 9 0 8 -1 14 -1 14 -1 0
-7 -4 -14 -9z"/>
<path d="M1047 539 c7 -7 15 -10 18 -7 3 3 -2 9 -12 12 -14 6 -15 5 -6 -5z"/>
<path d="M202 510 c0 -14 2 -19 5 -12 2 6 2 18 0 25 -3 6 -5 1 -5 -13z"/>
<path d="M714 515 c-3 -8 -4 -20 -2 -27 3 -7 7 -1 10 15 6 29 1 36 -8 12z"/>
<path d="M121 484 c0 -11 3 -14 6 -6 3 7 2 16 -1 19 -3 4 -6 -2 -5 -13z"/>
<path d="M316 487 c3 -10 9 -15 12 -12 3 3 0 11 -7 18 -10 9 -11 8 -5 -6z"/>
<path d="M687 467 c-3 -8 1 -14 8 -14 7 0 11 6 8 14 -3 7 -6 13 -8 13 -2 0 -5
-6 -8 -13z"/>
<path d="M312 440 c0 -14 2 -19 5 -12 2 6 2 18 0 25 -3 6 -5 1 -5 -13z"/>
<path d="M880 440 c-8 -5 -10 -10 -5 -10 6 0 17 5 25 10 8 5 11 10 5 10 -5 0
-17 -5 -25 -10z"/>
<path d="M943 435 c-3 -9 -3 -19 1 -22 3 -4 6 1 6 10 0 8 8 18 18 20 16 4 16
5 -1 6 -10 0 -20 -6 -24 -14z"/>
<path d="M995 420 c-49 -51 -137 -64 -203 -31 -36 18 -62 18 -62 0 0 -4 7 -5
17 -2 11 4 14 3 9 -5 -5 -8 -2 -10 8 -6 9 3 31 -7 53 -25 52 -43 118 -44 160
-2 22 22 60 101 49 101 -1 0 -15 -14 -31 -30z"/>
<path d="M1515 433 c-9 -25 11 -38 24 -15 8 15 7 21 -3 25 -8 3 -17 -1 -21
-10z"/>
<path d="M200 430 c0 -5 7 -7 15 -4 8 4 15 8 15 10 0 2 -7 4 -15 4 -8 0 -15
-4 -15 -10z"/>
<path d="M347 419 c7 -26 59 -59 92 -59 27 0 22 12 -6 14 -29 3 -73 28 -73 42
0 7 -4 15 -9 18 -5 4 -7 -3 -4 -15z"/>
<path d="M660 430 c0 -5 6 -7 14 -4 8 3 24 1 35 -5 11 -6 22 -7 25 -2 3 5 -8
11 -25 15 -42 8 -49 8 -49 -4z"/>
<path d="M1763 375 c0 -38 2 -53 4 -32 2 20 2 52 0 70 -2 17 -4 1 -4 -38z"/>
<path d="M770 420 c0 -5 5 -10 11 -10 5 0 7 5 4 10 -3 6 -8 10 -11 10 -2 0 -4
-4 -4 -10z"/>
<path d="M220 411 c0 -6 4 -13 10 -16 6 -3 7 1 4 9 -7 18 -14 21 -14 7z"/>
<path d="M634 396 c-9 -20 -9 -23 2 -19 8 3 14 14 14 24 0 25 -3 24 -16 -5z"/>
<path d="M330 403 c0 -6 8 -17 18 -24 16 -13 16 -13 2 6 -8 11 -16 22 -17 24
-2 2 -3 0 -3 -6z"/>
<path d="M665 400 c-3 -5 -2 -10 4 -10 5 0 13 5 16 10 3 6 2 10 -4 10 -5 0
-13 -4 -16 -10z"/>
<path d="M138 383 c6 -3 9 -10 5 -16 -4 -7 0 -6 10 1 9 8 22 10 28 6 7 -4 9
-3 6 3 -4 6 -19 10 -34 10 -16 0 -22 -2 -15 -4z"/>
<path d="M1025 370 c3 -5 8 -10 11 -10 2 0 4 5 4 10 0 6 -5 10 -11 10 -5 0 -7
-4 -4 -10z"/>
<path d="M990 332 c-18 -18 -20 -23 -7 -19 9 4 17 2 17 -3 0 -6 5 -10 11 -10
6 0 8 9 4 21 -5 15 -4 19 4 15 6 -4 11 -3 11 3 0 20 -16 18 -40 -7z"/>
<path d="M518 343 c7 -3 16 -2 19 1 4 3 -2 6 -13 5 -11 0 -14 -3 -6 -6z"/>
<path d="M798 313 c6 -2 18 -2 25 0 6 3 1 5 -13 5 -14 0 -19 -2 -12 -5z"/>
<path d="M941 300 c-9 -5 -4 -7 13 -7 29 0 32 2 13 10 -8 3 -20 2 -26 -3z"/>
<path d="M1167 276 c-4 -10 1 -12 14 -9 23 6 24 9 5 16 -8 3 -17 0 -19 -7z"/>
<path d="M110 276 c0 -2 7 -7 16 -10 8 -3 12 -2 9 4 -6 10 -25 14 -25 6z"/>
<path d="M1739 213 c-13 -16 -12 -17 4 -4 16 13 21 21 13 21 -2 0 -10 -8 -17
-17z"/>
<path d="M955 200 c-16 -7 -17 -9 -3 -9 9 -1 18 -6 20 -13 3 -9 6 -9 12 0 4 7
2 12 -4 12 -6 0 -8 5 -5 10 7 11 7 11 -20 0z"/>
<path d="M1015 200 c3 -5 8 -10 11 -10 2 0 4 5 4 10 0 6 -5 10 -11 10 -5 0 -7
-4 -4 -10z"/>
<path d="M1611 184 c0 -11 3 -14 6 -6 3 7 2 16 -1 19 -3 4 -6 -2 -5 -13z"/>
<path d="M1128 153 c-10 -2 -18 -9 -18 -15 0 -6 7 -7 18 -3 9 4 23 8 30 8 6 0
12 4 12 9 0 8 -13 9 -42 1z"/>
<path d="M300 136 c0 -2 8 -10 18 -17 15 -13 16 -12 3 4 -13 16 -21 21 -21 13z"/>
<path d="M825 130 c-4 -6 3 -10 14 -10 25 0 27 6 6 13 -8 4 -17 2 -20 -3z"/>
<path d="M1343 125 c-3 -9 -3 -18 -1 -21 3 -3 8 4 11 16 6 23 -1 27 -10 5z"/>
<path d="M630 118 c0 -5 28 -8 62 -8 34 0 59 2 56 5 -8 8 -118 11 -118 3z"/>
<path d="M768 123 c7 -3 16 -2 19 1 4 3 -2 6 -13 5 -11 0 -14 -3 -6 -6z"/>
<path d="M1135 120 c-3 -5 -1 -10 4 -10 6 0 11 5 11 10 0 6 -2 10 -4 10 -3 0
-8 -4 -11 -10z"/>
<path d="M1005 110 c3 -5 11 -10 16 -10 6 0 7 5 4 10 -3 6 -11 10 -16 10 -6 0
-7 -4 -4 -10z"/>
<path d="M1206 105 c-11 -8 -17 -18 -13 -21 4 -4 14 -1 23 6 12 11 20 11 35 2
24 -15 25 -4 2 14 -22 17 -24 17 -47 -1z"/>
<path d="M477 99 c7 -7 15 -10 18 -7 3 3 -2 9 -12 12 -14 6 -15 5 -6 -5z"/>
<path d="M943 103 c-7 -3 -13 -8 -13 -12 0 -9 51 -34 57 -27 2 2 -5 7 -16 11
-27 8 -28 25 -1 18 11 -3 20 -3 20 0 0 7 -33 14 -47 10z"/>
<path d="M573 69 c14 -8 22 -8 30 0 8 8 3 11 -18 11 -26 -1 -28 -2 -12 -11z"/>
<path d="M653 63 c20 -2 54 -2 75 0 20 2 3 4 -38 4 -41 0 -58 -2 -37 -4z"/>
<path d="M1670 61 c0 -6 4 -13 10 -16 6 -3 7 1 4 9 -7 18 -14 21 -14 7z"/>
</g>
</svg>
